<?xml version="1.0" encoding="UTF-8"?>
<svg width="59px" height="16px" viewBox="0 0 59 16" version="1.1" xmlns="http://www.w3.org/2000/svg"
    xmlns:xlink="http://www.w3.org/1999/xlink">
    <title>logo_作业不凡</title>
    <defs>
        <linearGradient x1="100%" y1="50%" x2="0%" y2="50%" id="linearGradient-1">
            <stop stop-color="#007FFB" offset="0%"></stop>
            <stop stop-color="#4B92FF" offset="100%"></stop>
        </linearGradient>
        <rect id="path-2" x="0" y="0" width="1440" height="64"></rect>
        <filter x="-0.3%" y="-7.0%" width="100.6%" height="114.1%" filterUnits="objectBoundingBox"
            id="filter-3">
            <feOffset dx="0" dy="0" in="SourceAlpha" result="shadowOffsetOuter1"></feOffset>
            <feGaussianBlur stdDeviation="1.5" in="shadowOffsetOuter1" result="shadowBlurOuter1"></feGaussianBlur>
            <feColorMatrix
                values="0 0 0 0 0.615240231   0 0 0 0 0.68745542   0 0 0 0 0.793075043  0 0 0 0.538609601 0"
                type="matrix" in="shadowBlurOuter1"></feColorMatrix>
        </filter>
        <polygon id="path-4"
            points="0.00376930263 0.0705767191 11.6532608 0.0705767191 11.6532608 15.6456481 0.00376930263 15.6456481"></polygon>
    </defs>
    <g id="批改老师权限管理" stroke="none" stroke-width="1" fill="none" fill-rule="evenodd">
        <g id="头部" transform="translate(-281.000000, -24.000000)">
            <g id="Rectangle-2-Copy" fill-rule="nonzero">
                <use fill="black" fill-opacity="1" filter="url(#filter-3)" xlink:href="#path-2"></use>
                <use fill="url(#linearGradient-1)" xlink:href="#path-2"></use>
            </g>
            <g id="logo_作业不凡" transform="translate(281.000000, 24.000000)">
                <path
                    d="M4.67391859,0.0626625257 C4.45148942,-0.0509108748 4.11473686,-0.0279969431 3.86452912,0.281396482 L0.148016432,4.87237428 C0.0423174469,5.00288406 -0.00972977607,5.17103026 0.00150199459,5.34559678 C0.0126334816,5.5201633 0.0854394235,5.67834692 0.206582093,5.79114545 L1.26006201,6.77234879 L2.28897243,5.50145579 L1.18073763,14.2664221 C1.15727125,14.4511726 1.20741309,14.6378049 1.31822654,14.7786094 C1.42914027,14.9194138 1.58949386,15 1.75837155,15 L3.19042231,15 L4.99322178,0.742885281 C5.03102873,0.443565129 4.90878294,0.182877646 4.67391859,0.0626625257"
                    id="Fill-1" fill="#FFFFFF"></path>
                <g id="Group-5" transform="translate(5.000000, 0.000000)">
                    <mask id="mask-5" fill="white">
                        <use xlink:href="#path-4"></use>
                    </mask>
                    <g id="Clip-4"></g>
                    <path
                        d="M10.4412055,1.2285945 C10.1602839,0.999619871 9.75847742,1.04096093 9.52666175,1.32269679 L9.38686452,1.49285749 C9.11976774,1.81753324 8.73145438,2.01133371 8.34822857,2.01133371 L7.49927005,2.01133371 L5.00614562,2.01133371 L3.82295668,2.01133371 L4.5288,1.07453626 L3.33831152,0.211969981 C3.00186912,-0.0319650869 2.53469862,0.0471767681 2.27523318,0.391837833 L0.189002765,3.16111755 C-0.00775299539,3.42241129 -0.0513290323,3.7509699 0.0754175115,4.01900155 C0.189776959,4.26065258 0.421813825,4.40500367 0.695878341,4.40500367 L2.60349124,4.40500367 L1.18616406,14.8897577 C1.13219171,15.2891215 1.4325788,15.6456595 1.82310415,15.6456595 L3.40290138,15.6456595 L3.88688295,12.0649759 L8.24238525,12.0649759 C8.63501198,12.0649759 8.97178618,11.7621127 9.02597972,11.360465 L9.25436682,9.67142018 L4.21038525,9.67142018 L4.40315945,8.24572477 L8.75855115,8.24572477 C9.15106728,8.24572477 9.48806267,7.94274737 9.54236682,7.5412138 L9.77064332,5.85205482 L4.72666175,5.85205482 L4.92231152,4.40500367 L7.17576774,4.40500367 L8.05779539,4.40500367 C9.18203502,4.40500367 10.317224,3.84084672 11.0945143,2.89571254 L11.6532608,2.21644017 L10.4412055,1.2285945 Z"
                        id="Fill-3" fill="#FFFFFF" mask="url(#mask-5)"></path>
                </g>
                <path
                    d="M16,11 L18.6755182,10.7691097 L19,3 L17.1158019,3.16253323 C16.6646684,3.2015793 16.3125765,3.51659326 16.2967451,3.8954142 L16,11 Z"
                    id="Fill-6" fill="#FFFFFF"></path>
                <path
                    d="M29,3.16714265 L27.510079,3.00431181 C27.1401704,2.96352402 26.79468,3.21615206 26.7056318,3.59082315 L25,10.766271 L27.1380923,11 L29,3.16714265 Z"
                    id="Fill-8" fill="#FFFFFF"></path>
                <path
                    d="M49.6567128,6 L48.3469431,6.85916333 C48.0294588,7.06749863 47.909274,7.51966094 48.0731178,7.88864296 L50.3432872,13 L51.6530569,12.1408367 C51.9705412,11.9323915 52.090726,11.4803391 51.9268822,11.111357 L49.6567128,6 Z"
                    id="Fill-10" fill="#FFFFFF"></path>
                <path
                    d="M58.9998502,13.9870088 C59.0038758,13.8564597 58.9265142,13.7393002 58.79857,13.6804814 L57.9143372,13.2764007 L57.5070511,13.091496 L57.3068211,13 L57,15 L57.2285843,14.9083446 L57.6932791,14.7202519 L58.7815924,14.2834941 C58.9126871,14.2308918 58.9963497,14.1172392 58.9998502,13.9870088"
                    id="Fill-12" fill="#ED858C"></path>
                <g id="Group-16" transform="translate(38.000000, 1.000000)" fill="#FFFFFF">
                    <path
                        d="M18.5040272,11.7948312 C18.3934946,11.7370832 18.2683436,11.7072248 18.1376187,11.7072248 L16.594265,11.7072248 C16.4704812,11.7072248 16.3613159,11.6582265 16.2870666,11.5693076 C16.211345,11.4787481 16.1793737,11.3566898 16.1970421,11.2252255 L17.6972765,0.04802494 L10.3503871,0.04802494 C9.12138328,0.04802494 7.98198336,1.08803668 7.81045288,2.36625912 L6.80409162,9.86486517 C6.66768755,10.8807058 5.7631298,11.7072248 4.78747787,11.7072248 C3.94812484,11.7072248 3.28051263,11.1215415 3.16398548,10.283101 L2.1563622,3.02456501 L0.4885937,3.48370574 C0.195172454,3.56715605 -0.00990691087,3.87689559 0.0314244689,4.17416679 L0.963431306,10.8791746 C1.21247127,12.6728641 2.60942984,13.9378526 4.38205174,13.9966943 L4.38173623,13.999538 L4.51140949,13.999538 L4.60953208,13.999538 L4.60995276,13.9969131 C6.74582805,13.9423368 8.7056506,12.1250232 9.0046458,9.89745781 L9.94969358,2.8561332 C9.98797506,2.5717678 10.2408011,2.34033812 10.5135041,2.34033812 L15.184581,2.34033812 L13.9195042,11.7660666 C13.83905,12.3649838 13.9898622,12.9279179 14.3437556,13.3512943 C14.6932319,13.7693114 15.1986736,13.999538 15.7670064,13.999538 L17.8585004,13.999538 C17.9892254,13.999538 18.1223692,13.9695702 18.2485719,13.9118222 L18.6208698,13.7413123 L18.8574998,11.9793406 L18.5040272,11.7948312 Z"
                        id="Fill-14"></path>
                </g>
                <path
                    d="M13.9675895,13 C13.5906504,13 13.2541071,13.212701 13.2013939,13.4839926 L13.0068319,14.487571 C12.9804753,14.6240279 13.0309369,14.7527554 13.1485483,14.8503745 C13.2652325,14.9468486 13.4325108,15 13.6197884,15 L14.6125977,15 L15,13 L13.9675895,13 Z"
                    id="Fill-17" fill="#ED858C"></path>
                <path
                    d="M36.0126307,3.21738038 L41.5839212,3.21738038 C42.6520697,3.21738038 43.7306213,2.67136166 44.4691307,1.75661452 L45,1.09918146 L43.8484171,0.143096063 C43.5815113,-0.0784062658 43.199752,-0.0387259584 42.9796073,0.234172869 L42.8465747,0.398862724 C42.5929091,0.713099809 42.2239697,0.900669396 41.859864,0.900669396 L31.0213875,0.900669396 C30.7195948,0.900669396 30.460465,1.13808806 30.4187479,1.45265674 L30.1845223,3.21738038 L33.7138784,3.21738038 L30.4924096,11.2147861 C30.1441712,12.0794631 29.3057297,12.6833995 28.4534176,12.6833995 L28.355377,12.6833995 L24.6506406,12.6833995 L26.2141411,0.900669396 L24.6722873,0.900669396 C24.2953617,0.900669396 23.9717122,1.19711114 23.919592,1.59004566 L22.447512,12.6833995 L21.2117593,12.6833995 L22.7752597,0.900669396 L21.2310942,0.900669396 C20.8555346,0.900669396 20.533041,1.19600583 20.4810259,1.58750346 L19.0085256,12.6833995 L15.3074671,12.6833995 L15,15 L28.048015,15 L28.1775799,15 L28.2756205,15 L28.2759357,14.9978999 C30.0604216,14.9525826 31.7973057,13.6822601 32.5248867,11.8759771 L34.9102258,5.95410575 L34.9926093,5.74973559 L35.1202827,5.79262127 C35.2338753,5.83075416 35.3228789,5.91752029 35.3591319,6.03589803 C35.4041066,6.18279254 35.4270142,6.4271746 35.3577658,6.82873047 C35.3551388,6.84475733 35.3526169,6.8607842 35.3505152,6.87670053 L34.3717907,14.2479532 C34.3166231,14.6633253 34.5920405,15 34.9868298,15 L36.4768787,15 L37.5526981,6.89759072 C37.8671005,4.52981483 36.7143618,3.68967551 35.8827506,3.53979669 L36.0126307,3.21738038 Z"
                    id="Fill-19" fill="#FFFFFF"></path>
            </g>
        </g>
    </g>
</svg>